<?xml version="1.0" standalone="no"?>
<!DOCTYPE svg PUBLIC "-//W3C//DTD SVG 20010904//EN"
 "http://www.w3.org/TR/2001/REC-SVG-20010904/DTD/svg10.dtd">
<svg version="1.0" xmlns="http://www.w3.org/2000/svg"
 width="1254.000000pt" height="1254.000000pt" viewBox="0 0 1254.000000 1254.000000"
 preserveAspectRatio="xMidYMid meet">

<g transform="translate(0.000000,1254.000000) scale(0.100000,-0.100000)"
fill="#000000" stroke="none">
<path d="M3748 10155 c-162 -26 -347 -100 -501 -202 -96 -64 -272 -239 -337
-338 -103 -154 -174 -325 -202 -488 -19 -107 -19 -5341 0 -5442 99 -537 539
-961 1062 -1025 70 -8 737 -10 2565 -8 l2470 4 85 21 c243 61 419 160 596 337
159 160 260 323 318 517 54 181 51 14 51 2889 0 2553 -1 2679 -18 2758 -83
377 -320 683 -663 859 -97 50 -173 77 -304 111 -59 15 -280 16 -2550 18 -2059
2 -2500 0 -2572 -11z m5087 -172 c428 -100 733 -402 843 -833 15 -60 16 -287
19 -2690 4 -2870 7 -2721 -53 -2898 -130 -390 -490 -690 -885 -742 -59 -8
-808 -10 -2539 -8 l-2455 3 -95 28 c-116 33 -261 102 -349 165 -141 99 -284
268 -364 427 -40 80 -84 232 -96 330 -14 118 -15 5165 -1 5275 52 398 321 742
695 888 219 85 41 80 2770 78 l2420 -2 90 -21z"/>
<path d="M4045 9336 c-103 -26 -187 -85 -243 -173 -65 -103 -62 -26 -62 -1437
0 -1342 0 -1329 43 -1412 32 -61 107 -133 175 -166 l67 -33 1221 -3 1221 -2
41 49 c23 27 42 52 42 55 0 3 -559 7 -1242 8 -1238 3 -1243 3 -1288 24 -58 27
-122 97 -146 160 -18 47 -19 89 -19 1049 l0 1000 2442 0 2443 0 2 -1066 c3
-1029 4 -1068 22 -1088 27 -30 54 -36 77 -15 19 17 19 46 19 1355 0 953 -3
1353 -11 1391 -18 84 -48 138 -114 204 -42 43 -77 68 -120 85 l-60 24 -2230 2
c-1743 1 -2241 -1 -2280 -11z m4502 -121 c60 -18 135 -80 166 -139 21 -38 22
-56 25 -274 l3 -232 -2443 2 -2443 3 0 215 c0 205 1 217 24 268 14 31 43 70
72 96 91 82 -123 75 2345 75 1925 1 2207 -1 2251 -14z"/>
<path d="M4214 9029 c-18 -5 -46 -25 -62 -44 -58 -65 -51 -147 15 -206 34 -29
40 -31 96 -27 53 4 63 8 93 40 102 112 1 280 -142 237z"/>
<path d="M4655 9028 c-61 -22 -95 -71 -95 -140 0 -81 58 -138 140 -138 86 0
140 56 140 147 0 41 -5 58 -27 84 -28 33 -79 60 -110 58 -10 0 -31 -5 -48 -11z"/>
<path d="M5083 9021 c-50 -23 -74 -57 -80 -114 -5 -53 19 -103 67 -135 29 -20
44 -23 88 -20 172 14 177 258 6 283 -27 4 -52 0 -81 -14z"/>
<path d="M7368 8220 c-47 -14 -86 -49 -108 -96 -19 -37 -21 -55 -16 -103 l7
-57 -143 -130 c-79 -71 -171 -156 -205 -188 l-63 -59 -39 11 c-52 16 -116 15
-149 -2 -65 -34 -107 -110 -100 -183 l3 -37 -125 -88 c-69 -48 -128 -88 -132
-88 -4 0 -104 47 -222 104 l-216 105 0 44 c0 155 -230 217 -317 85 -16 -24
-28 -59 -32 -94 l-6 -57 -322 -179 -323 -180 -30 25 c-64 54 -150 60 -219 14
-48 -32 -74 -87 -75 -156 l-1 -54 -204 -149 c-113 -81 -208 -154 -213 -161
-21 -34 5 -77 48 -77 16 0 95 53 230 154 l205 154 46 -20 c103 -45 220 19 239
132 5 32 14 39 97 86 51 28 201 113 335 187 l243 136 32 -19 c49 -30 141 -27
189 5 l37 25 236 -115 c130 -63 242 -115 248 -115 11 0 49 26 259 172 55 39
57 39 87 24 38 -20 123 -21 160 -2 70 37 115 129 97 201 -4 17 -1 30 12 42 36
35 338 310 373 342 32 27 40 30 64 21 67 -25 153 -5 197 48 95 113 32 279
-112 296 -25 3 -57 1 -72 -4z"/>
<path d="M8166 7884 c-14 -14 -16 -85 -16 -639 l0 -623 72 -22 c39 -12 111
-39 159 -61 48 -21 92 -39 98 -39 12 0 14 154 12 905 -2 424 -3 471 -18 483
-12 8 -60 12 -154 12 -112 0 -141 -3 -153 -16z"/>
<path d="M7650 7531 c-6 -13 -10 -167 -10 -434 l0 -414 138 -8 c75 -5 153 -9
172 -9 l35 -1 3 419 c2 363 0 422 -13 443 -15 22 -19 23 -165 23 -137 0 -150
-2 -160 -19z"/>
<path d="M7156 7219 l-26 -20 0 -304 c0 -188 4 -306 10 -310 5 -3 45 5 87 19
43 13 107 29 143 36 36 6 75 16 88 21 l22 9 0 269 c0 328 15 301 -171 301
-113 0 -129 -2 -153 -21z"/>
<path d="M6636 6874 c-14 -13 -16 -49 -16 -238 0 -159 3 -225 12 -234 7 -7 40
-12 80 -12 65 0 72 3 163 57 l95 57 0 173 c0 101 -4 182 -10 194 -10 17 -23
19 -160 19 -122 0 -151 -3 -164 -16z"/>
<path d="M6126 6608 c-20 -28 -23 -187 -4 -206 8 -8 59 -12 163 -12 104 0 155
4 163 12 8 8 12 46 12 103 0 127 2 125 -178 125 -134 0 -142 -1 -156 -22z"/>
<path d="M7510 6516 c-652 -95 -1153 -570 -1291 -1226 -31 -147 -31 -388 -1
-545 32 -162 110 -379 164 -457 23 -34 75 -38 101 -10 23 25 23 27 -23 124
-47 102 -91 231 -116 348 -29 129 -26 432 4 553 106 424 369 764 733 947 218
110 403 154 644 153 169 0 291 -21 442 -74 331 -117 613 -360 777 -669 54
-103 88 -192 124 -325 24 -93 26 -115 27 -310 0 -171 -4 -225 -19 -290 -26
-113 -73 -249 -112 -327 -51 -101 -44 -148 21 -148 40 0 56 18 99 113 53 116
92 232 118 353 30 141 32 427 5 566 -125 616 -604 1094 -1217 1213 -117 22
-361 28 -480 11z"/>
<path d="M7492 6185 c-211 -38 -436 -150 -582 -289 l-51 -49 28 -29 c15 -17
76 -75 136 -130 97 -91 109 -99 126 -87 10 8 43 33 73 55 30 23 82 56 116 73
68 34 219 81 262 81 62 0 60 -5 60 201 l0 189 -47 -1 c-27 0 -81 -7 -121 -14z"/>
<path d="M7760 6011 l0 -188 78 -13 c138 -22 272 -80 376 -161 l48 -39 47 40
c25 22 89 80 141 129 l95 89 -40 37 c-104 96 -272 193 -413 239 -91 30 -226
56 -288 56 l-44 0 0 -189z"/>
<path d="M5232 5892 c-27 -27 -29 -92 -28 -723 1 -447 4 -549 15 -562 12 -15
40 -17 220 -17 148 0 210 3 219 12 9 9 12 165 12 640 l0 627 -22 21 c-20 19
-34 20 -210 20 -169 0 -190 -2 -206 -18z"/>
<path d="M8475 5660 c-124 -125 -129 -131 -115 -153 93 -147 131 -232 151
-339 l12 -68 189 0 188 0 0 39 c0 98 -56 284 -126 421 -43 83 -139 221 -159
227 -6 2 -69 -55 -140 -127z"/>
<path d="M6757 5728 c-110 -135 -213 -385 -232 -560 l-7 -68 190 0 191 0 7 38
c21 122 72 251 130 329 13 17 24 35 24 40 0 8 -106 113 -221 221 l-46 44 -36
-44z"/>
<path d="M4511 5504 c-21 -26 -21 -37 -21 -455 0 -375 2 -429 16 -443 13 -14
48 -16 224 -16 197 0 210 1 220 19 6 13 10 173 10 450 0 418 -1 432 -20 451
-19 19 -33 20 -214 20 l-195 0 -20 -26z"/>
<path d="M8034 5364 c-98 -80 -192 -159 -209 -174 -28 -27 -34 -28 -97 -23
-158 13 -268 -88 -268 -245 0 -142 101 -242 242 -242 152 1 257 114 245 262
-3 35 -8 72 -11 83 -5 15 32 66 164 225 93 112 170 212 170 220 0 21 -20 40
-40 40 -9 0 -97 -66 -196 -146z m-271 -364 c51 -40 43 -126 -14 -155 -41 -22
-74 -18 -108 11 -26 22 -31 33 -31 70 0 36 5 50 26 69 34 31 91 33 127 5z"/>
<path d="M3815 5198 c-11 -6 -23 -16 -27 -22 -14 -20 -9 -561 4 -574 9 -9 71
-12 218 -12 147 0 209 3 218 12 19 19 17 557 -2 584 -13 17 -29 19 -203 22
-129 1 -194 -2 -208 -10z"/>
<path d="M6520 4947 c0 -78 25 -209 58 -307 42 -121 108 -250 130 -250 9 0 44
16 77 36 33 20 99 59 148 86 48 27 87 55 87 62 0 7 -18 51 -39 97 -44 95 -58
141 -75 249 l-11 75 -188 3 -187 2 0 -53z"/>
<path d="M8525 4988 c-2 -7 -6 -35 -10 -63 -11 -86 -35 -167 -76 -254 -21 -46
-39 -89 -39 -95 0 -15 289 -181 315 -181 29 0 106 159 144 298 31 114 57 280
46 297 -10 16 -375 13 -380 -2z"/>
<path d="M3590 4453 c-38 -7 -50 -22 -50 -59 0 -23 6 -37 19 -44 13 -7 421
-10 1250 -10 1218 0 1231 0 1251 20 25 25 25 41 1 71 l-19 24 -1214 1 c-667 1
-1224 -1 -1238 -3z"/>
<path d="M5030 3951 c-89 -27 -134 -84 -134 -166 0 -32 7 -60 18 -78 24 -36
87 -72 156 -87 121 -28 153 -53 135 -110 -15 -47 -125 -56 -174 -14 -17 14
-31 33 -31 41 0 13 -8 15 -46 9 -26 -3 -53 -6 -60 -6 -37 0 10 -100 64 -134
98 -64 270 -51 338 25 51 57 54 154 7 210 -33 39 -62 53 -164 79 -91 23 -119
41 -119 75 0 37 36 60 92 60 45 0 53 -4 78 -34 27 -32 30 -33 79 -26 39 5 51
11 51 24 0 24 -38 79 -71 103 -45 34 -156 48 -219 29z"/>
<path d="M6754 3949 c-64 -18 -127 -71 -158 -132 -38 -75 -47 -188 -21 -267
46 -139 198 -216 341 -175 82 23 129 56 163 116 78 137 56 312 -50 402 -23 20
-62 43 -87 51 -50 17 -139 20 -188 5z m166 -121 c62 -43 75 -70 75 -161 0
-100 -24 -149 -89 -178 -52 -23 -80 -23 -133 0 -94 43 -121 206 -51 305 42 57
139 74 198 34z"/>
<path d="M3757 3938 c-2 -7 -4 -137 -3 -288 l1 -275 140 0 c152 1 190 9 252
54 87 63 125 209 88 337 -23 79 -87 145 -164 168 -69 20 -306 23 -314 4z m304
-121 c76 -51 91 -214 27 -284 -31 -34 -96 -55 -158 -51 l-55 3 -3 178 -2 177
78 0 c66 0 85 -4 113 -23z"/>
<path d="M4465 3880 c-15 -39 -62 -166 -105 -283 -86 -235 -86 -230 -3 -225
l47 3 20 57 20 57 81 5 c44 4 95 3 114 -2 30 -6 37 -14 50 -54 22 -64 30 -70
92 -66 48 3 54 5 51 23 -3 15 -154 427 -197 538 -6 14 -20 17 -75 17 l-68 0
-27 -70z m133 -175 c18 -50 32 -94 32 -98 0 -4 -31 -7 -70 -7 -38 0 -70 3 -70
7 0 21 65 202 70 195 4 -4 21 -48 38 -97z"/>
<path d="M5432 3663 l3 -288 55 0 55 0 5 120 c3 66 8 119 13 118 4 -2 57 -3
117 -3 l110 0 0 -108 c0 -71 4 -112 12 -120 13 -13 86 -16 106 -4 9 7 12 71
10 288 l-3 279 -54 3 c-37 2 -57 -1 -62 -10 -5 -7 -9 -59 -9 -115 l0 -103
-120 0 -120 0 0 115 0 115 -60 0 -60 0 2 -287z"/>
<path d="M6042 3663 l3 -288 155 1 c141 0 159 2 198 22 55 29 82 73 82 135 0
59 -21 102 -62 127 -29 18 -30 18 -9 29 51 28 67 129 31 189 -36 58 -83 72
-253 72 l-147 0 2 -287z m261 176 c43 -23 50 -66 17 -99 -16 -16 -33 -20 -90
-20 l-70 0 0 65 0 65 61 0 c33 0 70 -5 82 -11z m20 -230 c29 -16 37 -28 37
-63 0 -53 -23 -66 -117 -66 l-83 0 0 70 0 70 71 0 c39 0 80 -5 92 -11z"/>
<path d="M7262 3673 c-56 -153 -102 -284 -102 -291 0 -10 15 -12 57 -10 l58 3
21 53 c12 29 26 58 31 63 5 5 55 8 113 7 l103 -3 21 -60 21 -60 60 0 c56 0 60
1 58 23 -2 12 -47 140 -101 285 l-98 262 -70 3 -70 3 -102 -278z m248 -70 c0
-2 -34 -3 -75 -3 -41 0 -75 1 -75 3 0 4 56 167 66 191 5 14 16 -6 45 -85 22
-57 39 -105 39 -106z"/>
<path d="M7795 3937 c-3 -7 -4 -136 -3 -287 l3 -275 55 0 55 0 3 103 3 102 44
0 43 0 59 -102 58 -103 54 -3 c88 -5 88 -5 17 117 l-64 110 34 20 c51 30 74
75 74 144 0 32 -7 71 -15 86 -20 39 -69 78 -113 91 -55 15 -301 13 -307 -3z
m261 -97 c57 -19 73 -83 32 -127 -19 -20 -31 -23 -100 -23 l-78 0 0 73 c0 41
2 76 4 78 10 10 110 9 142 -1z"/>
<path d="M8344 3939 c-3 -6 -5 -132 -3 -281 3 -201 7 -272 17 -280 19 -16 257
-4 310 15 65 25 109 64 139 125 24 49 28 69 28 142 0 103 -15 150 -67 206 -62
67 -119 84 -283 84 -85 0 -136 -4 -141 -11z m306 -125 c46 -39 60 -74 60 -151
0 -88 -21 -130 -81 -161 -34 -18 -57 -22 -104 -20 l-60 3 0 177 0 178 77 0
c68 0 80 -3 108 -26z"/>
</g>
</svg>
