<?xml version="1.0" standalone="no"?>
<!DOCTYPE svg PUBLIC "-//W3C//DTD SVG 20010904//EN"
 "http://www.w3.org/TR/2001/REC-SVG-20010904/DTD/svg10.dtd">
<svg version="1.0" xmlns="http://www.w3.org/2000/svg"
 width="1105.000000pt" height="1424.000000pt" viewBox="0 0 1105.000000 1424.000000"
 preserveAspectRatio="xMidYMid meet">

<g transform="translate(0.000000,1424.000000) scale(0.100000,-0.100000)"
fill="#000000" stroke="none">
<path d="M4422 10270 c-109 -22 -220 -112 -271 -220 -23 -49 -26 -67 -26 -165
0 -101 3 -115 29 -167 62 -123 177 -202 309 -215 l67 -6 0 -618 c0 -517 -3
-630 -15 -691 -14 -65 -139 -355 -333 -768 -60 -127 -155 -334 -239 -520 -101
-223 -105 -232 -153 -335 -23 -49 -77 -166 -120 -260 -43 -93 -127 -278 -188
-410 -60 -132 -124 -271 -142 -310 -215 -465 -205 -434 -205 -635 0 -126 4
-165 19 -210 66 -194 234 -349 427 -395 94 -22 3788 -22 3892 0 163 34 320
160 395 315 45 94 62 173 62 295 0 173 -2 177 -268 755 -86 186 -192 418 -307
670 -51 111 -117 257 -300 655 -48 105 -107 233 -130 285 -24 52 -80 174 -125
270 -45 96 -99 214 -120 261 -21 48 -54 118 -74 157 -20 39 -45 103 -56 144
-19 69 -20 101 -20 709 l0 636 65 6 c218 21 373 225 337 443 -23 138 -98 239
-220 297 l-67 32 -1090 2 c-599 0 -1109 -3 -1133 -7z m2202 -195 c44 -21 101
-83 115 -124 35 -105 -24 -222 -127 -251 -20 -5 -74 -10 -119 -10 -98 0 -126
-9 -142 -47 -9 -22 -11 -209 -9 -753 3 -711 4 -726 25 -795 12 -38 83 -203
158 -365 75 -162 179 -389 232 -505 53 -115 147 -322 211 -460 256 -556 292
-638 287 -643 -3 -3 -29 2 -58 11 -90 28 -178 40 -292 40 -216 0 -378 -56
-652 -227 -244 -151 -379 -203 -559 -213 -189 -11 -324 22 -564 139 -164 79
-312 131 -437 153 -104 18 -316 21 -438 6 -120 -16 -336 -72 -460 -120 -55
-21 -101 -38 -103 -36 -5 4 130 309 243 550 18 39 56 122 85 185 29 63 91 198
138 300 46 102 136 298 200 435 338 737 336 732 352 881 7 62 10 342 8 757
l-3 659 -28 24 c-26 22 -37 24 -126 24 -84 0 -104 3 -149 26 -147 73 -142 270
8 350 l45 24 1063 0 c935 0 1068 -2 1096 -15z m396 -4090 c116 -17 214 -47
300 -90 64 -33 65 -34 102 -116 20 -46 64 -145 98 -219 116 -253 197 -435 203
-455 4 -11 11 -53 17 -94 27 -192 -64 -373 -229 -454 l-66 -32 -1915 0 -1915
0 -66 32 c-113 55 -202 169 -228 291 -28 134 -12 208 98 451 49 108 99 220
112 250 l23 54 128 62 c146 71 353 143 508 176 82 17 139 22 260 23 228 0 354
-32 620 -158 96 -46 212 -95 257 -110 123 -38 275 -52 420 -38 192 18 321 70
605 244 167 102 271 149 379 172 141 30 163 31 289 11z"/>
<path d="M5725 7767 c-66 -22 -98 -43 -147 -95 -59 -63 -75 -95 -90 -180 -10
-59 -9 -79 5 -137 28 -114 82 -181 187 -236 38 -20 61 -23 140 -24 84 0 101 3
152 28 74 36 139 108 168 187 30 81 26 201 -11 274 -34 68 -99 133 -166 163
-68 31 -176 40 -238 20z m194 -206 c42 -30 63 -74 64 -133 1 -39 -5 -55 -29
-84 -35 -44 -88 -74 -129 -74 -40 0 -114 38 -138 71 -21 29 -33 95 -23 133 8
34 54 86 91 102 43 20 125 13 164 -15z"/>
<path d="M4983 6966 c-68 -22 -127 -61 -181 -121 -71 -78 -96 -145 -96 -265
-1 -87 2 -101 31 -162 60 -127 163 -207 296 -228 130 -20 274 26 357 116 184
200 125 523 -116 636 -56 26 -81 31 -158 34 -59 3 -106 -1 -133 -10z m222
-200 c144 -77 149 -268 8 -364 -58 -40 -151 -42 -218 -5 -61 35 -106 103 -112
171 -4 37 1 58 24 102 59 115 186 156 298 96z"/>
</g>
</svg>
