<?xml version="1.0" standalone="no"?>
<!DOCTYPE svg PUBLIC "-//W3C//DTD SVG 20010904//EN"
 "http://www.w3.org/TR/2001/REC-SVG-20010904/DTD/svg10.dtd">
<svg version="1.0" xmlns="http://www.w3.org/2000/svg"
 width="1024.000000pt" height="1536.000000pt" viewBox="0 0 1024.000000 1536.000000"
 preserveAspectRatio="xMidYMid meet">

<g transform="translate(0.000000,1536.000000) scale(0.100000,-0.100000)"
fill="#000000" stroke="none">
<path d="M3640 9496 c-25 -6 -114 -51 -197 -99 -84 -48 -222 -126 -305 -173
-165 -93 -208 -127 -241 -189 l-22 -40 0 -795 c0 -887 -4 -838 70 -897 l35
-28 0 -266 c0 -293 7 -342 59 -402 16 -17 35 -46 44 -63 23 -44 89 -98 139
-114 43 -13 110 -17 303 -19 l101 -1 13 -37 c41 -114 153 -233 275 -293 163
-81 326 -81 491 0 111 54 225 178 261 284 12 34 21 45 42 49 31 6 1701 2 1705
-4 2 -2 19 -38 39 -79 61 -125 181 -233 313 -282 88 -32 263 -32 356 0 152 52
281 172 335 312 9 25 19 47 21 49 2 3 101 6 220 8 l216 3 51 28 c96 54 139
168 121 325 -8 76 -27 109 -77 137 l-39 22 2 261 c1 249 0 265 -22 322 -36 96
-94 144 -296 249 -94 49 -183 100 -197 115 -13 14 -112 150 -220 301 -107 151
-235 331 -283 399 -102 142 -152 191 -243 235 l-65 31 -417 3 -417 3 -3 227
-3 227 -31 55 c-17 30 -50 70 -73 87 -84 65 -48 63 -1080 62 -706 0 -947 -3
-981 -13z m529 -150 c-2 -2 -100 -58 -216 -125 l-213 -121 -255 0 c-163 0
-255 4 -255 10 0 6 5 10 10 10 6 0 102 52 213 115 l202 114 259 1 c143 0 257
-2 255 -4z m1156 -5 c-6 -4 -102 -60 -215 -122 l-205 -114 -315 -3 c-173 -1
-371 -1 -439 0 l-125 3 115 66 c63 37 157 92 209 122 l95 55 445 1 c251 1 440
-3 435 -8z m299 -52 l26 -31 0 -204 0 -204 -98 0 c-160 0 -240 -37 -300 -138
l-27 -47 -3 -623 -3 -623 -112 3 -112 3 -2 780 -3 780 218 122 c119 68 251
143 292 167 41 24 80 45 87 45 6 1 23 -13 37 -30z m-1943 -411 c2 -271 10
-451 19 -468 26 -49 78 -32 248 82 l73 49 119 -80 c65 -45 129 -81 141 -81 13
0 33 10 46 22 23 21 23 22 23 295 l0 273 245 0 245 0 0 -775 0 -776 -894 3
c-492 2 -898 7 -903 11 -4 5 -9 337 -11 738 -2 622 0 734 12 764 l15 35 310 0
311 0 1 -92z m539 -108 c0 -110 -3 -200 -7 -200 -4 0 -39 23 -79 50 -92 64
-118 69 -166 36 -21 -14 -63 -41 -93 -60 l-55 -36 0 205 0 205 200 0 200 0 0
-200z m2413 -82 c60 -18 124 -86 254 -270 65 -92 190 -269 278 -394 88 -125
178 -243 201 -262 22 -20 123 -79 225 -132 163 -85 187 -101 206 -136 44 -76
48 -74 -172 -74 -195 0 -196 0 -220 -25 -39 -38 -35 -118 10 -204 46 -86 90
-140 131 -157 22 -9 75 -14 159 -14 l125 0 0 -74 c0 -152 -20 -166 -229 -166
l-139 0 -23 48 c-31 64 -159 190 -235 230 -157 82 -361 85 -514 7 -99 -50
-217 -172 -249 -258 l-11 -27 -310 0 -310 0 0 470 0 470 513 0 c479 0 515 2
553 19 34 15 45 28 59 65 15 39 16 53 7 84 -6 20 -87 149 -180 286 -123 183
-179 257 -211 280 l-43 31 -349 3 c-381 3 -378 3 -442 -57 -66 -60 -62 -7 -65
-868 l-3 -783 -488 0 -488 0 -39 66 c-71 121 -206 224 -339 259 -73 18 -213
19 -280 1 -154 -40 -282 -141 -352 -276 l-26 -50 -246 2 -246 3 -3 243 -2 242
1040 0 c1021 0 1040 0 1072 -20 38 -23 90 -26 106 -7 8 9 12 227 14 694 3 665
3 681 23 703 11 13 34 31 50 41 28 18 62 19 589 19 407 0 570 -3 599 -12z
m-156 -360 c17 -14 263 -380 288 -428 l16 -30 -486 0 -485 0 0 218 c0 159 3
223 13 235 16 21 45 22 370 20 199 -2 273 -5 284 -15z m1353 -1120 l0 -61
-104 5 c-69 3 -111 9 -122 19 -16 13 -64 83 -64 94 0 5 270 12 283 7 4 -2 7
-31 7 -64z m-3518 -282 c116 -55 201 -162 229 -289 26 -118 -26 -264 -125
-355 -78 -71 -146 -96 -261 -97 -81 0 -97 3 -157 32 -82 39 -146 101 -190 185
-31 60 -33 68 -33 173 0 100 3 115 28 167 45 92 128 166 228 202 69 26 208 17
281 -18z m2739 18 c109 -32 209 -118 257 -222 23 -49 27 -70 27 -152 0 -86 -3
-101 -32 -160 -108 -223 -369 -295 -573 -158 -69 46 -132 133 -156 216 -26 87
-16 201 24 279 86 169 272 250 453 197z m899 -272 c0 -28 -7 -57 -16 -71 -31
-43 -70 -51 -259 -51 l-175 0 0 45 0 45 141 0 c160 0 203 9 257 56 20 17 40
30 45 27 4 -2 7 -25 7 -51z m-4350 -77 l0 -45 -137 0 c-76 0 -155 5 -175 10
-34 10 -78 50 -78 71 0 5 88 9 195 9 l195 0 0 -45z m2792 0 l-4 -45 -842 2
-841 3 -3 43 -3 42 848 0 848 0 -3 -45z"/>
<path d="M3285 8095 c-14 -13 -25 -33 -25 -45 0 -11 11 -32 25 -45 24 -25 24
-25 238 -25 202 0 216 1 241 21 32 25 35 70 6 99 -19 19 -33 20 -240 20 l-221
0 -24 -25z"/>
<path d="M3302 7860 c-46 -19 -48 -95 -3 -119 13 -7 130 -11 330 -11 298 0
312 1 331 20 20 20 26 65 12 86 -20 31 -54 34 -349 33 -164 0 -308 -4 -321 -9z"/>
<path d="M5970 7517 c-52 -26 -61 -95 -18 -134 17 -15 38 -18 154 -18 125 0
135 1 156 22 30 30 30 86 0 116 -20 20 -34 22 -145 25 -86 2 -129 -1 -147 -11z"/>
<path d="M4082 6713 c-49 -24 -75 -68 -80 -133 -6 -80 23 -134 85 -162 121
-53 243 34 230 165 -11 115 -131 181 -235 130z"/>
<path d="M6870 6708 c-52 -36 -73 -71 -77 -130 -10 -140 144 -226 253 -143
122 93 56 295 -96 295 -32 0 -57 -7 -80 -22z"/>
<path d="M2125 7765 c-14 -13 -25 -36 -25 -50 0 -14 11 -37 25 -50 24 -25 25
-25 233 -25 197 0 211 1 236 21 20 16 26 29 26 58 0 69 -8 71 -254 71 l-217 0
-24 -25z"/>
<path d="M2285 7395 c-16 -15 -25 -36 -25 -55 0 -19 9 -40 25 -55 24 -25 26
-25 204 -25 172 0 181 1 205 23 41 36 43 71 8 107 l-30 30 -182 0 c-179 0
-181 0 -205 -25z"/>
</g>
</svg>
