<?xml version="1.0" standalone="no"?>
<!DOCTYPE svg PUBLIC "-//W3C//DTD SVG 20010904//EN"
 "http://www.w3.org/TR/2001/REC-SVG-20010904/DTD/svg10.dtd">
<svg version="1.0" xmlns="http://www.w3.org/2000/svg"
 width="1536.000000pt" height="1024.000000pt" viewBox="0 0 1536.000000 1024.000000"
 preserveAspectRatio="xMidYMid meet">

<g transform="translate(0.000000,1024.000000) scale(0.100000,-0.100000)"
fill="#000000" stroke="none">
<path d="M7590 8896 c-196 -44 -310 -202 -310 -431 0 -91 -3 -93 -191 -97
-149 -3 -157 -4 -196 -30 -61 -40 -77 -82 -81 -220 l-4 -118 -292 0 c-283 0
-293 -1 -336 -22 -86 -45 -80 44 -80 -1130 0 -929 2 -1038 16 -1052 16 -17 41
-20 68 -10 14 6 16 106 16 1036 l0 1029 25 24 24 25 284 0 285 0 6 -32 c19
-102 93 -196 192 -244 l59 -29 579 -3 c563 -3 580 -2 641 18 104 35 188 123
222 234 l17 56 287 0 c267 0 288 -1 310 -19 l24 -19 5 -1153 5 -1153 32 -9
c68 -20 63 -121 63 1171 l0 1169 -22 33 c-13 18 -36 43 -51 54 -27 20 -42 21
-338 24 l-309 3 0 115 c0 93 -4 122 -19 152 -43 84 -89 102 -263 102 -171 0
-178 4 -178 98 0 223 -132 394 -334 431 -71 13 -85 13 -156 -3z m206 -120
c117 -54 164 -135 174 -298 7 -116 16 -139 74 -182 24 -19 46 -22 184 -26 86
-3 163 -9 171 -14 27 -17 41 -75 41 -166 l0 -90 -40 0 -39 0 -3 93 -3 92 -45
0 -45 0 -3 -92 -3 -93 -584 0 -584 0 -3 93 -3 92 -45 0 -45 0 -3 -93 -3 -93
-37 3 -37 3 2 93 c2 166 1 165 213 172 143 5 158 7 189 29 50 36 71 90 71 188
0 106 25 174 82 230 68 65 108 81 208 82 49 1 78 -5 116 -23z m450 -877 c3 -6
-3 -21 -15 -33 -21 -21 -26 -21 -489 -24 -257 -2 -495 -1 -529 3 -67 7 -127
40 -101 56 21 14 1125 11 1134 -2z m-1246 -12 c0 -28 62 -99 103 -118 40 -17
73 -19 572 -19 493 0 533 2 570 19 45 20 92 70 101 107 5 20 12 24 45 24 21 0
39 -2 39 -5 0 -23 -57 -110 -94 -142 -76 -67 -68 -66 -608 -70 -495 -4 -596 1
-662 32 -59 28 -107 85 -136 160 -9 24 -8 25 30 25 27 0 40 -4 40 -13z"/>
<path d="M7620 8683 c-33 -6 -87 -48 -110 -85 -56 -93 -17 -213 85 -259 98
-45 206 0 250 103 20 49 19 84 -4 135 -40 87 -118 124 -221 106z m107 -115
c34 -32 32 -99 -3 -127 -57 -45 -134 -8 -134 64 0 73 85 112 137 63z"/>
<path d="M6101 8200 c-101 -37 -168 -98 -214 -197 l-22 -48 -3 -1074 c-2 -792
1 -1077 9 -1087 15 -18 63 -18 78 -1 7 10 11 318 13 1073 l3 1059 22 40 c30
56 73 99 124 127 43 22 52 23 327 26 l282 3 0 50 0 49 -282 0 c-255 -1 -288
-3 -337 -20z"/>
<path d="M8620 8171 l0 -51 268 0 c225 0 276 -3 318 -17 63 -21 145 -103 162
-162 10 -33 13 -300 13 -1222 0 -649 3 -1187 6 -1195 8 -23 80 -18 93 6 7 14
10 385 8 1212 l-3 1193 -23 57 c-32 80 -99 150 -180 190 l-67 33 -297 3 -298
3 0 -50z"/>
<path d="M6602 7301 c-18 -5 -45 -19 -59 -32 -49 -46 -53 -70 -53 -324 0 -262
4 -285 61 -326 33 -24 38 -24 289 -27 291 -3 306 0 347 73 21 37 23 52 23 210
l0 170 -55 -57 -55 -56 0 -111 c0 -149 14 -141 -253 -141 -207 0 -208 0 -232
25 l-25 24 0 219 c0 195 2 222 18 241 16 20 27 21 247 24 l230 2 9 28 c8 22 6
31 -7 45 -16 15 -44 17 -235 19 -119 1 -232 -2 -250 -6z"/>
<path d="M7056 7104 l-179 -184 -48 45 c-66 62 -91 72 -124 51 -45 -30 -34
-60 51 -140 85 -79 111 -96 133 -89 29 10 403 387 418 421 12 30 12 37 -2 58
-33 51 -56 36 -249 -162z"/>
<path d="M7443 7093 c-17 -6 -16 -48 1 -62 9 -8 199 -10 691 -9 633 3 679 4
689 21 8 12 8 22 0 35 -10 16 -55 17 -690 19 -373 1 -685 -1 -691 -4z"/>
<path d="M7434 6805 c-14 -56 -23 -55 486 -55 509 0 500 -1 486 55 l-6 25
-480 0 -480 0 -6 -25z"/>
<path d="M6562 6290 c-18 -11 -41 -34 -52 -52 -18 -31 -20 -51 -20 -279 0
-239 1 -247 23 -280 12 -18 38 -44 56 -56 33 -22 41 -23 275 -23 231 0 243 1
281 23 26 14 48 37 63 67 20 40 22 58 22 202 0 87 -4 158 -8 158 -4 0 -29 -21
-55 -47 l-46 -48 -3 -120 c-3 -116 -4 -120 -28 -132 -18 -9 -84 -13 -226 -13
-190 0 -203 1 -228 21 l-27 21 3 230 c3 214 4 231 22 244 16 11 66 14 241 14
159 0 224 3 233 12 19 19 14 45 -10 62 -19 13 -60 16 -253 16 -212 0 -233 -2
-263 -20z"/>
<path d="M7056 6114 l-181 -186 -55 49 c-30 27 -64 53 -74 56 -28 11 -66 -18
-66 -49 0 -35 153 -183 190 -184 20 0 72 46 238 213 117 117 212 221 212 231
0 34 -20 56 -52 56 -26 0 -54 -24 -212 -186z"/>
<path d="M7442 6108 c-16 -16 -15 -43 2 -57 9 -8 200 -10 697 -9 l684 3 3 23
c8 54 34 52 -697 52 -513 0 -680 -3 -689 -12z"/>
<path d="M7443 5843 c-16 -6 -17 -45 -1 -61 9 -9 129 -12 479 -12 412 0 469 2
483 16 9 8 16 21 16 28 0 35 -16 36 -495 35 -258 0 -476 -3 -482 -6z"/>
<path d="M5982 5709 c-121 -20 -218 -95 -270 -207 -20 -45 -27 -77 -30 -149
l-4 -93 -137 0 c-146 0 -170 -6 -203 -51 -27 -37 -172 -1180 -154 -1219 14
-31 102 -76 175 -90 33 -6 331 -10 773 -10 805 0 771 -3 808 69 l20 41 480 0
480 0 0 45 0 45 -495 0 -495 0 0 28 c0 15 -3 37 -6 50 l-6 22 501 0 501 0 0
45 0 45 -509 0 c-435 0 -510 2 -514 15 -3 7 -33 180 -66 382 -90 546 -88 534
-111 557 -18 19 -35 21 -160 24 l-140 4 0 52 c0 167 -73 301 -198 365 -34 17
-148 43 -177 40 -5 -1 -34 -5 -63 -10z m186 -108 c92 -48 150 -145 159 -267
l6 -74 -37 0 c-34 0 -36 2 -36 33 0 122 -102 277 -183 277 -43 0 -41 -19 6
-66 49 -48 79 -114 91 -196 l7 -48 -134 0 c-156 0 -150 -5 -141 103 10 127 32
214 61 237 35 28 148 28 201 1z m-334 -141 c-7 -47 -13 -111 -13 -142 l-1 -58
-35 0 c-33 0 -35 2 -35 35 0 51 20 135 42 180 19 38 49 78 53 73 1 -2 -4 -41
-11 -88z m-348 -536 c8 -126 25 -362 39 -524 13 -162 21 -298 17 -301 -4 -4
-23 0 -42 9 l-35 17 -6 140 c-8 171 -19 270 -29 258 -4 -4 -13 -66 -20 -138
-7 -71 -15 -157 -19 -190 l-6 -60 -49 -23 c-26 -13 -50 -21 -53 -18 -6 6 99
880 123 1024 5 33 40 59 57 42 4 -4 15 -110 23 -236z m336 213 c-2 -15 -11
-42 -22 -59 -10 -17 -17 -36 -15 -42 2 -6 6 -23 9 -37 11 -49 87 -64 132 -26
34 30 37 77 6 110 -13 14 -22 36 -22 55 l0 32 210 0 210 0 0 -24 c0 -13 -9
-35 -21 -49 -11 -15 -23 -42 -26 -61 -4 -28 -1 -39 20 -60 29 -29 64 -33 106
-11 46 23 55 74 21 118 -11 14 -20 39 -20 56 l0 31 113 0 c61 0 117 -4 123 -8
5 -4 20 -70 32 -147 34 -220 87 -540 128 -781 21 -121 35 -228 31 -237 -6 -16
-53 -17 -596 -17 l-589 0 -6 53 c-18 153 -86 1009 -86 1085 l0 53 133 -3 132
-3 -3 -28z m-333 -1105 c91 -38 90 -52 -1 -52 -71 0 -182 15 -202 28 -9 5 106
50 129 50 6 0 39 -12 74 -26z"/>
<path d="M6480 4111 c-18 -5 -25 -14 -25 -31 l0 -25 153 -3 152 -3 0 26 c0 18
-7 28 -26 35 -28 11 -215 12 -254 1z"/>
<path d="M8785 5449 c-251 -25 -409 -89 -454 -183 -17 -35 -21 -62 -21 -149
l0 -107 -27 -5 c-134 -28 -175 -47 -221 -99 -36 -41 -39 -58 -46 -224 -5 -134
4 -184 35 -206 l21 -14 -24 -32 c-22 -30 -23 -42 -26 -200 -4 -203 -1 -212 88
-259 82 -44 213 -70 386 -78 l141 -6 6 24 c14 51 10 56 -49 62 -31 3 -58 8
-61 10 -2 3 -1 37 3 76 l7 71 48 -6 c53 -7 56 -4 61 50 3 33 10 31 -133 40
-127 8 -270 39 -339 74 -48 23 -55 31 -58 59 -4 40 26 60 66 44 81 -31 270
-61 393 -61 52 0 68 4 73 16 19 50 -5 74 -73 74 l-41 0 0 85 0 84 65 -6 c63
-6 65 -5 75 21 19 51 15 54 -67 61 -297 24 -473 78 -481 147 -4 33 41 69 115
93 l52 17 34 -36 c66 -70 211 -122 410 -146 l98 -13 -28 -17 c-42 -25 -81 -75
-93 -118 -15 -54 -12 -280 4 -317 11 -25 11 -36 -2 -68 -11 -28 -13 -69 -10
-167 4 -143 11 -162 77 -207 114 -77 385 -121 676 -110 332 14 513 70 568 177
25 48 21 280 -5 306 -15 15 -15 19 3 48 16 27 19 51 19 179 0 168 -7 195 -66
246 -76 67 -282 139 -404 141 l-35 1 36 19 c19 10 52 37 72 59 30 33 37 49 38
84 0 23 2 80 4 127 3 106 -8 151 -46 195 -104 118 -489 182 -864 144z m455
-99 c105 -13 229 -44 281 -70 44 -23 72 -60 63 -83 -18 -48 -185 -99 -390
-118 -114 -11 -411 -8 -469 4 -11 3 -42 8 -69 12 -73 10 -185 51 -212 76 -29
27 -31 60 -6 82 45 41 201 84 362 100 81 8 362 6 440 -3z m-787 -283 l37 -17
0 -70 c0 -81 -12 -89 -61 -41 -26 26 -29 36 -29 91 0 34 3 60 8 58 4 -2 24
-12 45 -21z m1145 -37 c-3 -30 -13 -59 -24 -71 -55 -61 -222 -104 -464 -119
-96 -6 -186 -11 -200 -13 -24 -2 -25 0 -28 74 l-3 76 198 6 c133 4 229 13 293
26 87 17 206 53 218 66 12 12 14 2 10 -45z m-984 -10 c25 -9 26 -13 26 -85 l0
-75 -27 6 c-59 14 -63 20 -63 94 0 76 6 82 64 60z m159 -26 l37 -7 0 -79 c0
-69 -2 -79 -16 -74 -9 3 -31 6 -50 6 l-34 0 0 80 c0 87 -2 84 63 74z m798
-268 c206 -28 332 -77 367 -143 18 -32 6 -50 -53 -78 -162 -80 -643 -101 -880
-40 -92 24 -163 60 -177 90 -54 119 379 219 743 171z m-1426 -42 c23 -15 25
-23 25 -90 0 -81 -8 -89 -47 -52 -20 18 -23 31 -23 90 0 72 5 78 45 52z m167
-60 c5 -3 8 -41 8 -85 0 -79 0 -80 -22 -73 -71 22 -68 17 -68 100 l0 76 37 -7
c21 -4 41 -9 45 -11z m146 -24 c20 0 22 -5 22 -47 0 -27 -3 -65 -6 -86 -7 -37
-7 -37 -43 -31 -20 4 -40 10 -45 14 -5 5 -5 43 -1 85 6 72 8 77 28 71 12 -3
32 -6 45 -6z m390 -170 l32 -14 0 -79 0 -79 -32 21 c-32 19 -33 23 -38 96 -3
41 -3 74 0 72 3 -2 20 -10 38 -17z m1110 -57 c-6 -64 -20 -81 -103 -119 -61
-28 -219 -60 -337 -68 l-88 -6 0 80 0 80 70 0 c102 0 273 28 365 60 44 15 84
28 89 29 5 1 6 -24 4 -56z m-935 -3 c4 -4 7 -38 5 -76 l-3 -69 -30 3 c-45 5
-55 19 -55 77 0 76 6 87 44 79 17 -3 35 -9 39 -14z m153 -20 c11 0 14 -19 14
-80 l0 -81 -37 6 c-64 11 -63 9 -63 83 0 38 3 72 7 76 5 4 21 5 37 2 16 -3 35
-6 42 -6z m189 -83 c0 -38 -3 -73 -6 -79 -3 -5 -28 -8 -55 -6 l-49 3 -3 78 -3
78 58 -3 58 -3 0 -68z m-1202 -64 c13 -4 17 -16 17 -57 0 -28 -3 -61 -6 -73
l-6 -22 -29 21 c-27 20 -29 27 -29 86 0 57 2 63 18 57 9 -4 25 -10 35 -12z
m133 -39 c22 -6 24 -11 24 -74 0 -38 -3 -71 -7 -73 -5 -2 -23 0 -40 5 l-33 9
0 75 c0 66 2 75 16 70 9 -3 27 -9 40 -12z m596 -9 c124 -45 232 -58 463 -58
230 0 357 15 504 59 45 14 85 23 88 21 9 -10 14 -154 6 -196 -11 -61 -56 -95
-157 -121 -82 -21 -353 -53 -367 -44 -5 3 -9 38 -9 79 l0 73 78 7 c185 17 414
69 434 99 22 32 -8 32 -147 2 -158 -34 -425 -46 -610 -26 -170 18 -365 83
-365 122 0 12 6 11 82 -17z m-421 -24 c3 -3 4 -38 1 -78 l-4 -72 -32 5 c-58
10 -58 10 -52 67 3 28 5 62 6 75 0 21 3 22 38 16 20 -3 40 -9 43 -13z m382
-90 c25 -13 27 -18 27 -78 0 -34 -4 -63 -9 -63 -4 0 -20 9 -35 21 -23 18 -26
28 -26 81 0 33 3 58 8 56 4 -2 19 -10 35 -17z m151 -40 c17 -7 19 -16 17 -77
-1 -38 -4 -70 -6 -72 -1 -2 -19 4 -39 12 -33 14 -36 18 -36 58 0 83 13 99 64
79z m162 -21 c11 0 14 -18 14 -76 l0 -75 -42 3 -43 3 -3 79 -3 79 32 -7 c17
-3 38 -6 45 -6z m182 -19 c9 -5 12 -28 10 -77 l-3 -69 -30 1 c-82 4 -75 -4
-75 79 l0 75 43 0 c23 0 48 -4 55 -9z"/>
<path d="M6954 4519 c3 -17 6 -35 6 -40 0 -5 205 -8 478 -7 l477 3 3 38 3 37
-487 0 -486 0 6 -31z"/>
<path d="M7092 3911 c-8 -5 -12 -17 -10 -27 3 -18 20 -19 380 -22 l377 -2 6
21 c5 14 2 25 -6 30 -18 11 -730 11 -747 0z"/>
<path d="M7973 3894 c-3 -8 -1 -20 5 -26 16 -16 47 -5 50 20 3 18 -1 22 -23
22 -14 0 -28 -7 -32 -16z"/>
<path d="M8395 3810 c-4 -6 -4 -22 -1 -36 6 -24 6 -24 144 -24 147 0 178 8
170 46 -3 18 -14 19 -155 22 -101 2 -154 -1 -158 -8z"/>
<path d="M6022 3798 c-17 -17 -15 -35 4 -42 24 -9 697 -7 712 3 8 5 12 17 10
27 -3 18 -20 19 -359 22 -267 2 -358 -1 -367 -10z"/>
<path d="M5217 3002 c-17 -7 -18 -27 -18 -297 l1 -290 42 0 43 0 -2 40 c-1 22
1 70 4 108 l5 67 78 0 c162 0 242 64 244 195 1 76 -23 121 -85 155 -39 22 -57
25 -169 27 -69 2 -133 -1 -143 -5z m237 -76 c45 -19 66 -52 66 -104 0 -91 -61
-136 -175 -130 l-60 3 -1 115 c0 63 1 118 3 123 7 12 132 8 167 -7z"/>
<path d="M9813 2942 c-6 -4 -13 -30 -15 -57 -3 -50 -3 -50 -40 -53 -34 -3 -38
-6 -38 -32 0 -26 4 -29 37 -32 l38 -3 0 -145 c0 -95 4 -152 12 -166 21 -37 79
-57 144 -51 71 6 79 11 79 46 0 27 0 27 -59 23 -85 -6 -91 6 -91 170 l0 128
65 0 65 0 0 30 0 30 -65 0 -65 0 0 60 c0 59 -1 60 -27 60 -16 0 -33 -4 -40 -8z"/>
<path d="M5831 2824 c-12 -9 -31 -30 -42 -48 l-19 -31 0 43 0 42 -40 0 -40 0
0 -210 0 -210 45 0 45 0 0 136 c0 119 3 141 20 169 23 38 69 60 105 51 24 -6
25 -4 25 34 0 40 0 40 -38 40 -21 0 -48 -7 -61 -16z"/>
<path d="M6070 2818 c-68 -35 -104 -95 -108 -183 -3 -61 0 -77 25 -125 23 -46
37 -60 82 -82 87 -44 188 -33 260 28 54 47 75 105 68 190 -10 124 -88 194
-217 194 -48 0 -78 -6 -110 -22z m165 -52 c66 -28 97 -148 57 -225 -25 -50
-62 -73 -113 -73 -83 1 -132 66 -127 168 7 114 85 170 183 130z"/>
<path d="M6574 2821 c-105 -48 -146 -194 -86 -312 38 -75 90 -104 187 -104 94
1 135 22 135 70 0 19 -2 35 -5 35 -2 0 -19 -9 -37 -20 -71 -43 -174 -15 -204
55 -32 77 -9 186 45 214 42 23 104 23 146 2 53 -28 57 -27 53 17 -3 32 -7 38
-38 49 -54 18 -149 15 -196 -6z"/>
<path d="M7528 2824 c-15 -8 -34 -27 -42 -42 l-15 -27 -1 38 c0 37 -1 37 -40
37 l-40 0 0 -210 0 -210 39 0 39 0 4 138 c3 112 7 144 21 166 22 32 80 60 114
53 18 -3 25 1 29 19 10 40 -2 54 -43 54 -21 -1 -50 -7 -65 -16z"/>
<path d="M7785 2825 c-42 -21 -93 -82 -105 -124 -28 -102 2 -214 69 -258 70
-47 179 -54 258 -17 28 14 33 22 33 50 l0 33 -47 -20 c-69 -30 -152 -23 -192
15 -16 15 -34 45 -39 67 l-10 39 155 0 155 0 -4 53 c-10 117 -71 177 -183 177
-34 0 -73 -7 -90 -15z m144 -60 c25 -12 51 -57 51 -86 0 -5 -49 -9 -110 -9
-70 0 -110 4 -110 10 0 21 30 69 52 84 28 20 80 20 117 1z"/>
<path d="M8282 2820 c-18 -11 -35 -27 -38 -35 -10 -25 -24 -17 -24 15 0 28 -2
30 -40 30 l-40 0 0 -210 0 -210 45 0 45 0 0 149 0 149 29 31 c22 23 38 31 63
31 63 0 68 -16 68 -198 l0 -162 45 0 45 0 0 150 c0 150 0 150 28 181 21 23 37
31 64 32 73 2 91 -45 87 -232 l-2 -126 41 -3 42 -3 -1 158 c0 95 -5 172 -12
193 -31 91 -171 109 -241 31 l-19 -21 -27 31 c-34 42 -108 51 -158 19z"/>
<path d="M8935 2825 c-70 -38 -105 -98 -113 -192 -12 -150 105 -251 264 -229
24 3 58 13 74 21 25 13 30 22 30 50 0 19 -1 35 -3 35 -1 0 -20 -9 -42 -20 -47
-24 -124 -26 -166 -5 -34 18 -69 69 -69 102 0 22 2 23 152 25 l153 3 -3 45
c-4 56 -38 128 -75 154 -38 28 -159 34 -202 11z m147 -56 c18 -10 48 -65 48
-89 0 -6 -41 -10 -110 -10 -81 0 -110 3 -110 13 0 22 40 78 63 87 31 12 84 12
109 -1z"/>
<path d="M9445 2828 c-11 -6 -32 -22 -47 -36 l-28 -26 0 32 c0 31 -2 32 -40
32 l-40 0 0 -210 0 -210 45 0 45 0 0 136 c0 179 15 213 102 229 29 5 40 2 64
-18 l29 -25 3 -161 4 -161 39 0 39 0 0 165 c0 180 -6 204 -56 244 -30 24 -123
29 -159 9z"/>
<path d="M6891 2668 c4 -141 7 -168 24 -197 49 -84 172 -95 248 -23 l27 26 0
-32 c0 -31 2 -32 40 -32 l40 0 0 210 0 210 -40 0 -40 0 0 -122 c0 -68 -5 -140
-10 -160 -21 -75 -121 -105 -171 -52 -23 24 -24 32 -27 180 l-3 154 -46 0 -45
0 3 -162z"/>
</g>
</svg>
